<?xml version="1.0" standalone="no"?>
<!DOCTYPE svg PUBLIC "-//W3C//DTD SVG 20010904//EN"
 "http://www.w3.org/TR/2001/REC-SVG-20010904/DTD/svg10.dtd">
<svg version="1.0" xmlns="http://www.w3.org/2000/svg"
 width="200.000000pt" height="200.000000pt" viewBox="0 0 200.000000 200.000000"
 preserveAspectRatio="xMidYMid meet">
<metadata>
Created by potrace 1.11, written by Peter Selinger 2001-2013
</metadata>
<g transform="translate(0.000000,200.000000) scale(0.100000,-0.100000)"
fill="#000000" stroke="none">
<path d="M659 1823 c-9 -10 -15 -45 -16 -97 -2 -94 1 -90 -120 -147 -46 -21
-83 -43 -83 -49 0 -15 2 -14 113 42 56 29 116 53 132 54 27 1 46 7 123 35 13
5 29 23 36 40 11 27 14 28 26 14 18 -22 49 -15 73 16 15 22 17 30 8 48 -11 19
-9 21 19 21 30 0 41 14 17 23 -7 3 -37 0 -67 -6 -40 -8 -55 -7 -58 1 -2 7 -11
12 -19 12 -12 0 -14 -7 -9 -36 9 -43 -9 -101 -35 -114 -19 -11 -29 3 -10 14
14 9 20 60 9 74 -16 19 -45 14 -62 -10 -11 -15 -16 -18 -16 -8 0 33 -22 90
-34 90 -8 0 -20 -7 -27 -17z m37 -99 c-4 -18 -13 -37 -21 -44 -13 -11 -15 -5
-15 38 0 28 5 63 11 79 l12 28 9 -34 c5 -19 7 -49 4 -67z m237 42 c8 -20 -30
-53 -44 -39 -16 16 -1 53 21 53 10 0 20 -6 23 -14z m-150 -12 c9 -10 -14 -65
-27 -61 -16 5 -20 36 -6 52 13 16 23 19 33 9z m-43 -84 c0 -9 -47 -30 -53 -24
-3 3 2 19 11 35 15 26 18 27 30 12 6 -9 12 -20 12 -23z"/>
<path d="M1040 1805 c0 -3 7 -16 15 -28 13 -20 13 -30 -4 -87 l-18 -64 -40 2
c-35 3 -44 -1 -71 -32 -38 -44 -49 -95 -31 -144 25 -66 2 -124 -36 -92 -24 20
-18 154 10 223 13 30 -28 20 -56 -15 -25 -30 -28 -31 -43 -15 -18 18 -46 13
-46 -9 0 -7 9 -18 20 -24 17 -9 18 -14 8 -35 -12 -26 -32 -33 -43 -15 -13 21
-51 10 -74 -21 -20 -27 -36 -97 -41 -182 0 -4 -11 -5 -25 -1 -37 9 -75 -19
-75 -56 0 -17 5 -30 10 -30 6 0 10 10 10 23 0 50 46 62 85 22 45 -44 25 -158
-31 -184 -35 -16 -51 -14 -101 10 -51 25 -88 81 -98 152 l-7 48 40 -7 c47 -7
105 16 129 52 23 36 33 92 21 125 -32 92 -159 42 -189 -74 -12 -51 -29 -54
-29 -6 0 36 23 84 58 121 33 35 21 49 -14 17 -54 -49 -79 -142 -50 -184 7 -11
16 -49 20 -84 9 -78 23 -107 75 -154 74 -66 155 -60 201 16 25 40 27 123 4
155 -8 12 -14 32 -12 45 3 20 5 19 21 -10 36 -66 94 -77 122 -22 19 36 19 120
0 165 -14 34 -13 38 5 61 11 14 20 29 20 34 0 4 11 19 24 32 l23 23 -5 -87
c-4 -72 -2 -93 12 -114 25 -38 68 -31 81 13 7 25 14 32 35 32 33 0 66 23 85
60 l15 29 30 -30 c21 -22 38 -30 57 -28 16 2 39 -3 52 -10 31 -17 97 -16 125
2 21 14 22 14 18 -18 -3 -26 2 -36 23 -54 51 -39 124 -17 146 44 7 19 16 35
20 35 16 0 48 -53 54 -90 4 -22 11 -40 17 -40 16 0 0 79 -22 109 -10 15 -30
33 -44 40 -14 8 -28 22 -31 32 -4 10 -19 28 -36 39 -16 12 -29 30 -29 41 0 31
-16 22 -44 -25 -41 -70 -89 -106 -141 -106 -54 0 -63 11 -26 33 84 49 118 139
66 173 -70 46 -160 -50 -141 -152 5 -26 4 -34 -8 -34 -71 0 -101 102 -67 229
18 67 18 78 5 103 -13 24 -34 39 -34 23z m231 -185 c33 -18 24 -58 -25 -106
-49 -50 -73 -55 -82 -19 -9 37 3 74 36 106 31 32 41 34 71 19z m-253 -22 c14
-14 16 -87 2 -122 -12 -33 -53 -59 -79 -51 -29 9 -46 67 -32 107 23 64 78 97
109 66z m423 -89 c33 -23 38 -44 9 -36 -11 3 -35 1 -54 -3 l-35 -8 22 34 c12
19 24 34 25 34 2 0 17 -9 33 -21z m-747 -55 c9 -3 16 -10 16 -16 0 -14 -43 -5
-48 10 -4 13 7 15 32 6z m789 -14 c13 -12 -4 -59 -26 -75 -42 -29 -107 -8
-107 35 0 18 24 43 50 53 17 7 71 -2 83 -13z m-969 -3 c27 -19 25 -87 -3 -125
-24 -34 -80 -57 -117 -48 -18 5 -24 13 -24 34 1 62 65 152 109 152 10 0 25 -6
35 -13z m226 -45 c13 -30 13 -118 0 -143 -7 -12 -21 -19 -38 -19 -40 0 -62 42
-62 122 l0 63 45 0 c36 0 46 -4 55 -23z"/>
<path d="M1004 1356 c5 -15 4 -17 -8 -7 -10 9 -20 9 -40 0 -14 -7 -23 -16 -20
-20 3 -5 -2 -6 -10 -3 -9 3 -16 2 -16 -4 0 -6 6 -13 13 -15 7 -3 6 -6 -5 -6
-9 -1 -20 -6 -24 -13 -5 -8 -2 -9 9 -5 22 8 22 -2 0 -20 -17 -14 -17 -14 0 -9
9 3 17 1 17 -3 0 -5 -5 -11 -10 -13 -15 -5 13 -68 40 -93 18 -16 23 -17 31 -5
8 11 8 8 3 -10 -4 -14 -31 -47 -61 -74 -33 -30 -52 -54 -49 -63 3 -8 2 -12 -3
-9 -4 3 -16 -3 -26 -14 -9 -10 -30 -22 -45 -25 -20 -4 -27 -11 -23 -21 3 -8 9
-14 15 -14 5 0 6 6 2 13 -5 8 -2 8 9 -2 14 -11 21 -11 43 4 14 9 38 31 54 48
25 28 26 33 12 39 -16 6 -16 7 0 7 25 1 32 -18 14 -38 -22 -24 -27 -56 -15
-88 8 -21 12 -23 24 -13 8 7 15 17 15 22 0 6 -7 4 -17 -3 -15 -13 -15 -12 -3
8 l14 22 24 -26 c26 -28 22 -44 -5 -22 -15 12 -16 12 -10 -4 4 -11 3 -16 -3
-12 -6 3 -10 2 -10 -4 0 -13 38 -34 65 -35 25 -2 23 -24 -11 -88 -29 -57 -29
-59 -6 -52 11 4 9 -1 -8 -16 l-25 -21 23 6 c22 6 23 5 12 -15 -10 -18 -9 -24
1 -31 22 -14 33 -10 19 6 -16 19 -6 19 14 0 15 -15 50 -10 40 6 -3 5 2 12 10
15 11 4 16 19 16 42 l0 35 -25 -23 c-14 -13 -25 -29 -25 -37 0 -7 -5 -13 -10
-13 -21 0 -22 31 -1 69 15 30 17 39 6 34 -8 -3 -15 0 -15 6 0 6 9 11 20 11 11
0 20 6 21 13 4 65 39 87 78 48 17 -17 21 -18 32 -5 6 8 9 18 5 21 -4 4 -11 1
-16 -7 -7 -11 -8 -8 -6 11 1 14 19 43 40 64 27 27 35 40 27 48 -19 19 -12 31
8 13 17 -16 22 -16 56 -2 29 12 41 13 51 5 11 -9 14 -7 14 7 1 18 1 18 14 2 7
-10 16 -18 19 -18 4 0 3 8 0 18 -6 14 -4 15 8 5 12 -10 18 -8 32 7 22 26 21
31 0 23 -16 -6 -17 -5 -3 12 14 17 13 18 -2 12 -13 -4 -18 -1 -18 11 0 15 -2
15 -10 2 -6 -10 -10 -11 -10 -2 0 6 -5 12 -11 12 -5 0 -7 -4 -4 -10 8 -13 -8
-13 -22 1 -13 13 -47 -17 -40 -35 3 -7 -3 -12 -12 -12 -9 -1 -24 -4 -33 -9
-14 -5 -18 -2 -18 15 0 11 -4 18 -10 15 -5 -3 -10 3 -10 14 0 16 -6 21 -26 21
-14 0 -34 -5 -44 -10 -16 -9 -22 -5 -36 26 -16 34 -18 35 -31 18 -7 -9 -10
-20 -7 -23 3 -3 9 1 14 9 6 8 10 10 10 5 0 -6 -5 -16 -11 -22 -8 -8 -8 -17 0
-31 8 -14 8 -29 1 -47 -14 -37 -13 -58 3 -49 8 6 8 3 -1 -9 -8 -9 -11 -20 -9
-25 3 -4 2 -14 -3 -22 -6 -10 -17 -6 -49 19 -23 18 -42 38 -43 44 0 7 -2 17
-2 22 -1 6 -5 16 -9 23 -5 7 -4 12 2 12 6 0 11 -4 11 -10 0 -21 30 -9 51 21
l21 30 -28 30 c-15 16 -22 29 -16 29 7 0 12 10 13 23 1 21 1 21 8 -2 9 -33 31
-39 31 -9 0 16 -3 19 -9 10 -18 -29 -22 36 -4 73 14 29 15 38 4 44 -10 6 -9
10 3 14 24 10 21 70 -5 93 -17 14 -23 16 -26 6 -4 -10 -9 -8 -20 5 -14 17 -14
17 -9 -1z m36 -71 c-4 -34 -15 -76 -24 -94 -15 -27 -20 -30 -32 -20 -13 10
-17 10 -26 -2 -8 -11 -9 -10 -4 4 9 27 -11 58 -32 50 -14 -5 -15 -3 -4 8 6 7
12 22 12 33 0 32 39 66 77 66 18 0 33 5 33 12 0 6 2 9 4 7 2 -2 0 -31 -4 -64z
m-90 -89 c0 -3 -4 -8 -10 -11 -5 -3 -10 -1 -10 4 0 6 5 11 10 11 6 0 10 -2 10
-4z m70 -66 c0 -5 -2 -10 -4 -10 -3 0 -8 5 -11 10 -3 6 -1 10 4 10 6 0 11 -4
11 -10z m-5 -60 c3 -5 1 -10 -4 -10 -6 0 -11 5 -11 10 0 6 2 10 4 10 3 0 8 -4
11 -10z m-13 -42 c-7 -7 -12 -8 -12 -2 0 14 12 26 19 19 2 -3 -1 -11 -7 -17z
m385 -24 c-3 -4 -14 -3 -24 0 -15 6 -15 8 -3 16 16 10 39 -4 27 -16z m-203 10
c25 -10 19 -34 -9 -34 -24 0 -34 18 -18 33 8 8 8 8 27 1z m-47 -10 c-3 -3 -12
-4 -19 -1 -8 3 -5 6 6 6 11 1 17 -2 13 -5z m143 -29 c0 -7 -30 -13 -34 -7 -3
4 4 9 15 9 10 1 19 0 19 -2z m-410 -11 c0 -3 -6 -12 -14 -19 -17 -18 -29 -8
-13 11 12 14 27 18 27 8z m240 -4 c0 -5 -5 -10 -11 -10 -5 0 -7 5 -4 10 3 6 8
10 11 10 2 0 4 -4 4 -10z m53 -10 c4 -14 -3 -26 -22 -39 l-27 -20 4 30 c3 22
9 29 19 24 11 -3 13 -1 9 10 -3 8 -2 15 3 15 5 0 11 -9 14 -20z m-150 -62 c-2
-4 -10 -2 -17 5 -8 6 -12 15 -9 19 2 4 10 2 17 -5 8 -6 12 -15 9 -19z"/>
<path d="M1828 1194 c-7 -9 -31 -34 -52 -55 -38 -36 -43 -38 -85 -32 -26 3
-48 7 -50 9 -8 7 21 32 44 38 16 4 22 11 19 21 -9 21 -16 19 -69 -21 l-47 -36
69 -44 68 -43 36 36 c31 29 45 51 76 111 1 2 26 -12 57 -32 71 -45 74 -68 11
-98 -25 -12 -45 -25 -45 -29 0 -4 8 -17 19 -30 l18 -23 18 28 c10 15 31 34 46
42 29 15 35 36 23 79 -6 22 -104 95 -128 95 -8 0 -21 -7 -28 -16z"/>
<path d="M1257 1069 c-7 -26 -1 -39 18 -39 24 0 28 21 8 42 -20 20 -20 20 -26
-3z"/>
<path d="M714 1031 c4 -6 -5 -9 -21 -8 -18 1 -27 -3 -25 -10 1 -7 -2 -13 -7
-13 -6 0 -9 -9 -8 -19 1 -13 6 -17 17 -13 13 5 13 4 0 -13 -14 -17 -13 -18 2
-12 10 3 20 1 24 -5 4 -7 3 -8 -4 -4 -7 4 -12 3 -12 -1 0 -5 14 -14 31 -20 31
-12 31 -13 15 -37 -9 -14 -16 -29 -16 -33 0 -4 4 -2 9 6 8 12 12 12 24 2 21
-17 28 10 23 80 -5 66 -11 81 -37 97 -12 8 -18 9 -15 3z m24 -43 c12 15 13 15
8 0 -3 -9 -2 -19 2 -21 4 -2 2 -2 -5 -1 -7 2 -15 -1 -19 -7 -8 -14 -36 11 -30
26 2 7 1 17 -2 21 -4 5 2 -1 13 -13 19 -21 21 -21 33 -5z"/>
<path d="M1621 966 c-39 -29 -41 -33 -35 -71 4 -28 20 -56 54 -95 40 -46 57
-58 108 -73 l60 -18 55 31 c69 38 77 63 47 143 -24 63 -44 87 -54 62 -3 -9 3
-34 15 -57 12 -24 18 -50 15 -63 -7 -26 -81 -89 -95 -81 -5 3 -12 45 -16 92
-7 75 -11 90 -36 119 -41 46 -68 48 -118 11z m92 -48 c17 -31 31 -73 35 -107
l5 -56 -30 26 c-17 14 -44 31 -62 38 -28 12 -31 18 -31 58 0 44 23 93 44 93 6
0 24 -23 39 -52z"/>
<path d="M450 924 c-38 -15 -82 -41 -105 -63 -57 -55 -95 -72 -134 -61 -19 5
-31 5 -31 -1 0 -5 5 -9 10 -9 6 0 10 -7 10 -15 0 -33 -35 -83 -76 -109 -24
-15 -44 -32 -44 -36 0 -9 39 -40 50 -40 3 0 11 15 18 33 6 18 33 53 59 79 l48
47 68 -42 67 -42 0 -47 c0 -44 -3 -49 -61 -102 -78 -70 -61 -86 33 -31 71 42
79 50 77 85 -4 61 0 71 21 60 23 -12 26 -2 6 25 -11 16 -9 28 15 90 23 60 49
165 49 197 0 12 -8 10 -80 -18z m-6 -146 c-24 -44 -46 -83 -48 -86 -3 -2 -28
15 -56 39 l-51 44 88 42 c48 23 93 42 100 42 6 1 -9 -36 -33 -81z"/>
<path d="M1469 872 c-2 -12 1 -46 7 -72 6 -23 7 -24 14 -5 14 33 11 72 -5 79
-8 3 -16 2 -16 -2z"/>
<path d="M1171 796 c-7 -8 -17 -42 -23 -76 -12 -60 -11 -63 11 -81 24 -19 67
-27 56 -10 -3 6 7 9 22 8 22 -2 30 5 45 36 28 57 11 66 -33 18 -54 -58 -73
-49 -64 32 6 49 5 58 -6 51 -12 -6 -11 -5 0 9 8 10 12 20 9 22 -3 3 -10 -1
-17 -9z"/>
<path d="M1525 766 c-38 -12 -40 -15 -43 -56 -2 -26 5 -67 19 -105 18 -52 30
-69 75 -104 l54 -42 62 11 c92 17 106 24 113 63 6 31 -15 108 -37 132 -17 19
-25 -15 -15 -60 8 -35 7 -48 -5 -67 -17 -26 -105 -55 -120 -40 -6 6 0 44 13
95 22 85 22 86 4 127 -27 61 -47 68 -120 46z m78 -28 c16 -69 19 -123 7 -159
-7 -21 -16 -39 -19 -38 -3 0 -23 22 -43 49 -32 41 -36 54 -31 85 4 24 16 44
37 60 38 30 42 31 49 3z"/>
<path d="M1333 681 c-11 -17 -9 -21 8 -26 11 -4 27 -1 35 6 14 12 14 14 -2 26
-23 17 -27 17 -41 -6z"/>
<path d="M615 615 c-33 -19 -61 -38 -63 -44 -5 -14 37 -139 49 -146 18 -12 8
-24 -43 -53 -43 -25 -55 -28 -75 -19 -22 10 -24 14 -17 64 l6 53 -32 0 c-27 0
-31 -3 -25 -17 4 -10 10 -43 14 -73 5 -48 10 -57 35 -69 27 -13 34 -11 103 23
80 39 87 54 59 112 -24 49 -23 88 4 128 30 44 46 41 43 -8 -2 -29 1 -36 16
-36 13 0 17 6 15 23 -10 74 -16 97 -22 96 -4 -1 -34 -16 -67 -34z"/>
<path d="M1350 634 c0 -3 20 -33 43 -67 57 -80 147 -232 147 -246 0 -19 17
-12 34 14 16 25 16 26 -50 106 -36 45 -77 108 -91 140 -23 52 -29 59 -54 59
-16 0 -29 -3 -29 -6z"/>
<path d="M805 544 c-22 -24 -46 -50 -54 -58 -11 -12 -7 -23 29 -71 23 -31 48
-59 56 -62 8 -3 14 -10 14 -17 -1 -19 -80 -96 -100 -96 -22 0 -40 28 -40 62 0
39 -13 50 -45 38 -27 -10 -27 -11 -9 -31 10 -12 26 -40 34 -62 14 -37 20 -42
50 -45 30 -2 43 5 93 48 61 55 70 80 36 108 -11 9 -30 34 -41 56 -18 34 -18
44 -8 82 17 60 50 55 50 -7 0 -10 7 -19 15 -19 8 0 15 5 15 11 0 16 -42 109
-49 108 -3 -1 -24 -21 -46 -45z"/>
<path d="M1210 475 l-12 -105 26 -33 c14 -17 45 -54 70 -81 43 -49 44 -49 75
-36 33 13 71 72 71 110 0 27 -5 26 -44 -17 l-34 -37 -56 42 -56 43 0 89 c0 50
3 90 8 90 4 0 22 -4 40 -9 35 -10 39 -4 22 30 -8 14 -21 19 -54 19 l-43 0 -13
-105z"/>
<path d="M997 470 l-68 -90 28 -102 c27 -98 30 -103 61 -112 30 -8 36 -6 71
28 26 26 44 56 60 106 22 68 22 71 5 125 -10 30 -21 55 -26 55 -4 0 -8 8 -8
18 0 16 -38 62 -51 62 -3 0 -35 -40 -72 -90z m123 -101 l0 -105 -47 -23 c-53
-25 -54 -25 -79 54 -16 49 -16 51 12 110 15 33 34 70 42 82 13 21 14 21 43 5
l29 -17 0 -106z"/>
</g>
</svg>
